<svg id="visual" viewBox="0 0 960 540" width="960" height="540" xmlns="http://www.w3.org/2000/svg" xmlns:xlink="http://www.w3.org/1999/xlink" version="1.1"><path d="M0 315L22.8 326C45.7 337 91.3 359 137 371.2C182.7 383.3 228.3 385.7 274 383.5C319.7 381.3 365.3 374.7 411.2 364.5C457 354.3 503 340.7 548.8 343.8C594.7 347 640.3 367 686 379.3C731.7 391.7 777.3 396.3 823 392.8C868.7 389.3 914.3 377.7 937.2 371.8L960 366L960 541L937.2 541C914.3 541 868.7 541 823 541C777.3 541 731.7 541 686 541C640.3 541 594.7 541 548.8 541C503 541 457 541 411.2 541C365.3 541 319.7 541 274 541C228.3 541 182.7 541 137 541C91.3 541 45.7 541 22.8 541L0 541Z" fill="#337b3e"></path><path d="M0 390L22.8 384.7C45.7 379.3 91.3 368.7 137 363.7C182.7 358.7 228.3 359.3 274 369.2C319.7 379 365.3 398 411.2 408.7C457 419.3 503 421.7 548.8 418.2C594.7 414.7 640.3 405.3 686 400C731.7 394.7 777.3 393.3 823 389.5C868.7 385.7 914.3 379.3 937.2 376.2L960 373L960 541L937.2 541C914.3 541 868.7 541 823 541C777.3 541 731.7 541 686 541C640.3 541 594.7 541 548.8 541C503 541 457 541 411.2 541C365.3 541 319.7 541 274 541C228.3 541 182.7 541 137 541C91.3 541 45.7 541 22.8 541L0 541Z" fill="#256431"></path><path d="M0 398L22.8 401.3C45.7 404.7 91.3 411.3 137 412.7C182.7 414 228.3 410 274 415.2C319.7 420.3 365.3 434.7 411.2 439.5C457 444.3 503 439.7 548.8 431.3C594.7 423 640.3 411 686 408.3C731.7 405.7 777.3 412.3 823 418.2C868.7 424 914.3 429 937.2 431.5L960 434L960 541L937.2 541C914.3 541 868.7 541 823 541C777.3 541 731.7 541 686 541C640.3 541 594.7 541 548.8 541C503 541 457 541 411.2 541C365.3 541 319.7 541 274 541C228.3 541 182.7 541 137 541C91.3 541 45.7 541 22.8 541L0 541Z" fill="#184d24"></path><path d="M0 442L22.8 443C45.7 444 91.3 446 137 448.7C182.7 451.3 228.3 454.7 274 454.8C319.7 455 365.3 452 411.2 447.7C457 443.3 503 437.7 548.8 437.8C594.7 438 640.3 444 686 450.7C731.7 457.3 777.3 464.7 823 464.5C868.7 464.3 914.3 456.7 937.2 452.8L960 449L960 541L937.2 541C914.3 541 868.7 541 823 541C777.3 541 731.7 541 686 541C640.3 541 594.7 541 548.8 541C503 541 457 541 411.2 541C365.3 541 319.7 541 274 541C228.3 541 182.7 541 137 541C91.3 541 45.7 541 22.8 541L0 541Z" fill="#0b3818"></path><path d="M0 472L22.8 478.2C45.7 484.3 91.3 496.7 137 497.8C182.7 499 228.3 489 274 490.2C319.7 491.3 365.3 503.7 411.2 505.3C457 507 503 498 548.8 492.5C594.7 487 640.3 485 686 485.7C731.7 486.3 777.3 489.7 823 488.2C868.7 486.7 914.3 480.3 937.2 477.2L960 474L960 541L937.2 541C914.3 541 868.7 541 823 541C777.3 541 731.7 541 686 541C640.3 541 594.7 541 548.8 541C503 541 457 541 411.2 541C365.3 541 319.7 541 274 541C228.3 541 182.7 541 137 541C91.3 541 45.7 541 22.8 541L0 541Z" fill="#032409"></path></svg>